<svg width="1025" height="358" viewBox="0 0 1025 358" fill="none" xmlns="http://www.w3.org/2000/svg">
<path d="M1025 358H0V0H1025V358ZM17.5586 20.2617V337.925H117.683C198.543 337.925 238.974 284.981 238.974 179.094C238.974 73.2061 198.543 20.2617 117.683 20.2617H17.5586ZM224.909 20.2617L306.89 337.925H392.902L474.547 20.2617H398.614L351.912 232.653H350.568L304.202 20.2617H224.909ZM485.406 20.2617V337.925H559.659V20.2617H485.406ZM580.38 20.2617V96.4463H679.495L572.316 305.144V337.925H796.419V261.741H686.552L793.73 53.0439V20.2617H580.38ZM808.07 20.2617V337.925H1010.33V261.741H882.323V213.261H989.839V140.31H882.323V96.4463H1007.98V20.2617H808.07ZM116.339 96.4463C147.473 96.4464 163.041 119.378 163.041 165.242V192.945C163.041 238.809 147.473 261.741 116.339 261.741H91.8115V96.4463H116.339Z" fill="black"/>
</svg>
